<svg width="173" height="191" viewBox="0 0 173 191" fill="none" xmlns="http://www.w3.org/2000/svg">
<path d="M102.885 -0.509244L109.538 11.4108C115.541 22.168 113.131 36.2796 103.676 45.735C103.676 45.735 92.2067 57.2041 113.001 77.9987C133.796 98.793 145.265 87.3243 145.265 87.3243C154.72 77.8689 168.832 75.4589 179.589 81.4623L191.509 88.1147C207.753 97.18 209.671 119.96 195.393 134.237C186.814 142.817 176.304 149.492 164.686 149.933C145.127 150.674 111.912 145.724 78.594 112.406C45.2756 79.0876 40.3257 45.8725 41.0672 26.3141C41.5076 14.6959 48.1832 4.18591 56.7625 -4.39338C71.0402 -18.6711 93.82 -16.7528 102.885 -0.509244Z" stroke="#262626" stroke-width="2" stroke-linecap="round" stroke-dasharray="16 6"/>
</svg>
