<svg width="173" height="191" viewBox="0 0 173 191" fill="none" xmlns="http://www.w3.org/2000/svg">
<path fill-rule="evenodd" clip-rule="evenodd" d="M123 -34.5C77.7127 -34.5 41 6.52648 41 52.625C41 98.3623 67.1716 148.077 108.005 167.163C117.524 171.612 128.476 171.612 137.995 167.163C178.828 148.077 205 98.3623 205 52.625C205 6.52648 168.287 -34.5 123 -34.5ZM123 68C134.322 68 143.5 58.8218 143.5 47.5C143.5 36.1782 134.322 27 123 27C111.678 27 102.5 36.1782 102.5 47.5C102.5 58.8218 111.678 68 123 68Z" stroke="#262626" stroke-width="2" stroke-dasharray="16 6"/>
</svg>
