<svg width="173" height="191" viewBox="0 0 173 191" fill="none" xmlns="http://www.w3.org/2000/svg">
<path fill-rule="evenodd" clip-rule="evenodd" d="M32.5086 -1.99138C20.5 10.0172 20.5 29.3448 20.5 68C20.5 106.655 20.5 125.983 32.5086 137.991C44.5172 150 63.8448 150 102.5 150H143.5C182.155 150 201.483 150 213.491 137.991C225.5 125.983 225.5 106.655 225.5 68C225.5 29.3448 225.5 10.0172 213.491 -1.99138C201.483 -14 182.155 -14 143.5 -14H102.5C63.8448 -14 44.5172 -14 32.5086 -1.99138ZM190.406 22.0786C193.124 25.3402 192.683 30.1877 189.421 32.9057L166.907 51.6673C157.822 59.2386 150.459 65.3752 143.959 69.5552C137.189 73.9094 130.596 76.66 123 76.66C115.404 76.66 108.811 73.9094 102.041 69.5552C95.5414 65.3752 88.1778 59.2386 79.0926 51.6674L56.5786 32.9057C53.317 30.1877 52.8763 25.3402 55.5943 22.0786C58.3123 18.817 63.1598 18.3763 66.4214 21.0943L88.5501 39.5349C98.1129 47.5039 104.752 53.0188 110.357 56.6238C115.783 60.1135 119.463 61.285 123 61.285C126.537 61.285 130.217 60.1135 135.643 56.6238C141.248 53.0188 147.887 47.5039 157.45 39.5349L179.579 21.0943C182.84 18.3763 187.688 18.817 190.406 22.0786Z" stroke="#262626" stroke-width="2" stroke-linecap="round" stroke-dasharray="16 6"/>
</svg>
